<svg width="122" height="43" viewBox="0 0 122 43" fill="none" xmlns="http://www.w3.org/2000/svg">
<path d="M66.744 16.776C66.744 17.544 66.568 18.272 66.216 18.96C65.88 19.632 65.408 20.24 64.8 20.784C64.192 21.312 63.48 21.76 62.664 22.128C61.848 22.496 60.96 22.744 60 22.872C60.24 23.592 60.528 24.336 60.864 25.104C61.216 25.856 61.592 26.584 61.992 27.288C62.392 27.992 62.808 28.64 63.24 29.232C63.672 29.824 64.096 30.312 64.512 30.696C64.432 30.856 64.312 31.016 64.152 31.176C64.008 31.336 63.832 31.48 63.624 31.608C63.432 31.752 63.224 31.864 63 31.944C62.792 32.04 62.592 32.088 62.4 32.088C62.048 32.088 61.712 31.92 61.392 31.584C61.072 31.248 60.744 30.72 60.408 30C60.088 29.264 59.744 28.32 59.376 27.168C59.024 26 58.632 24.6 58.2 22.968C58.024 22.968 57.848 22.968 57.672 22.968C57.496 22.968 57.36 22.952 57.264 22.92C57.152 22.856 57.032 22.744 56.904 22.584C56.472 23.512 56.088 24.384 55.752 25.2C55.416 26.016 55.112 26.808 54.84 27.576C54.584 28.328 54.352 29.064 54.144 29.784C53.952 30.488 53.784 31.208 53.64 31.944C53.096 31.816 52.624 31.584 52.224 31.248C51.824 30.912 51.448 30.44 51.096 29.832C51.16 29.688 51.224 29.552 51.288 29.424C51.368 29.28 51.464 29.088 51.576 28.848C51.688 28.592 51.824 28.272 51.984 27.888C52.16 27.504 52.384 26.992 52.656 26.352C52.944 25.712 53.28 24.928 53.664 24C54.064 23.072 54.544 21.944 55.104 20.616C55.36 20.024 55.576 19.504 55.752 19.056C55.944 18.608 56.112 18.184 56.256 17.784C56.4 17.368 56.528 16.96 56.64 16.56C56.768 16.144 56.896 15.672 57.024 15.144C56.288 15.4 55.6 15.688 54.96 16.008C54.336 16.312 53.816 16.64 53.4 16.992C53.256 16.896 53.104 16.752 52.944 16.56C52.8 16.368 52.664 16.16 52.536 15.936C52.408 15.696 52.296 15.456 52.2 15.216C52.104 14.976 52.048 14.76 52.032 14.568C52.512 14.248 53.096 13.952 53.784 13.68C54.488 13.408 55.232 13.176 56.016 12.984C56.8 12.776 57.6 12.616 58.416 12.504C59.232 12.392 59.992 12.336 60.696 12.336C62.616 12.336 64.104 12.736 65.16 13.536C66.216 14.32 66.744 15.4 66.744 16.776ZM60.888 14.76C60.776 14.904 60.6 15.192 60.36 15.624C60.12 16.056 59.84 16.576 59.52 17.184C59.216 17.776 58.888 18.424 58.536 19.128C58.2 19.832 57.872 20.528 57.552 21.216C58.752 21.216 59.856 21.104 60.864 20.88C61.872 20.656 62.744 20.344 63.48 19.944C64.216 19.528 64.784 19.048 65.184 18.504C65.6 17.944 65.808 17.328 65.808 16.656C65.808 15.856 65.52 15.248 64.944 14.832C64.368 14.4 63.48 14.184 62.28 14.184C62.008 14.184 61.736 14.2 61.464 14.232C61.192 14.248 60.904 14.272 60.6 14.304L60.888 14.76ZM74.5059 20.064C74.4419 21.056 74.2659 21.912 73.9779 22.632C73.6899 23.336 73.2739 23.96 72.7299 24.504C72.2019 25.032 71.5539 25.512 70.7859 25.944C70.0179 26.376 69.1219 26.792 68.0979 27.192C68.0979 27.288 68.0899 27.392 68.0739 27.504C68.0739 27.6 68.0739 27.704 68.0739 27.816C68.0739 28.024 68.0899 28.24 68.1219 28.464C68.1539 28.688 68.2099 28.896 68.2899 29.088C68.3699 29.28 68.4819 29.44 68.6259 29.568C68.7699 29.68 68.9539 29.736 69.1779 29.736C69.6099 29.736 70.0339 29.64 70.4499 29.448C70.8659 29.256 71.2579 29.024 71.6259 28.752C72.0099 28.464 72.3619 28.16 72.6819 27.84C73.0179 27.504 73.3139 27.2 73.5699 26.928C73.7299 27.072 73.8659 27.208 73.9779 27.336C73.2579 28.296 72.4659 29.096 71.6019 29.736C70.7539 30.36 69.9459 30.76 69.1779 30.936C68.0739 30.808 67.2099 30.408 66.5859 29.736C65.9779 29.048 65.6739 28.224 65.6739 27.264C65.6739 26.608 65.7619 25.944 65.9379 25.272C66.1299 24.584 66.3859 23.928 66.7059 23.304C67.0419 22.664 67.4259 22.064 67.8579 21.504C68.3059 20.944 68.7779 20.456 69.2739 20.04C69.7859 19.624 70.3059 19.296 70.8339 19.056C71.3779 18.816 71.9139 18.696 72.4419 18.696C73.1779 18.792 73.8659 19.248 74.5059 20.064ZM72.8499 20.856C72.4179 20.92 71.9699 21.096 71.5059 21.384C71.0419 21.672 70.6019 22.056 70.1859 22.536C69.7859 23.016 69.4179 23.576 69.0819 24.216C68.7459 24.856 68.4819 25.544 68.2899 26.28C69.5699 25.64 70.6339 24.856 71.4819 23.928C72.3299 22.984 72.7859 21.96 72.8499 20.856ZM75.7611 25.776C75.7611 24.864 75.9451 23.984 76.3131 23.136C76.6971 22.272 77.1931 21.512 77.8011 20.856C78.4251 20.184 79.1291 19.648 79.9131 19.248C80.7131 18.832 81.5371 18.624 82.3851 18.624C83.2171 18.624 83.8571 18.832 84.3051 19.248C84.7531 19.664 84.9771 20.256 84.9771 21.024C84.9771 21.392 84.9211 21.752 84.8091 22.104C84.7131 22.44 84.5771 22.744 84.4011 23.016C84.2411 23.288 84.0491 23.512 83.8251 23.688C83.6011 23.848 83.3771 23.928 83.1531 23.928C82.9611 23.928 82.7611 23.872 82.5531 23.76C82.3611 23.632 82.2011 23.472 82.0731 23.28C83.1451 22.304 83.6811 21.416 83.6811 20.616C83.6811 20.152 83.4971 19.92 83.1291 19.92C82.8091 19.92 82.4091 20.072 81.9291 20.376C81.4491 20.68 80.9851 21.08 80.5371 21.576C79.8491 22.344 79.3211 23.2 78.9531 24.144C78.6011 25.072 78.4251 26.048 78.4251 27.072C78.4251 28.368 78.7131 29.144 79.2891 29.4C79.5291 29.368 79.8091 29.296 80.1291 29.184C80.4491 29.072 80.7931 28.928 81.1611 28.752C81.5291 28.56 81.9051 28.344 82.2891 28.104C82.6891 27.864 83.0731 27.608 83.4411 27.336C83.5051 27.384 83.5611 27.456 83.6091 27.552C83.6571 27.648 83.6811 27.736 83.6811 27.816C83.4091 28.152 83.0971 28.48 82.7451 28.8C82.3931 29.12 82.0251 29.416 81.6411 29.688C81.2571 29.944 80.8811 30.16 80.5131 30.336C80.1611 30.528 79.8491 30.648 79.5771 30.696C79.0491 30.648 78.5531 30.48 78.0891 30.192C77.6251 29.92 77.2171 29.56 76.8651 29.112C76.5291 28.664 76.2571 28.152 76.0491 27.576C75.8571 27 75.7611 26.4 75.7611 25.776ZM85.7192 28.392C85.7192 28.248 85.7272 28.072 85.7432 27.864C85.7752 27.64 85.8232 27.352 85.8872 27C85.9512 26.632 86.0312 26.192 86.1272 25.68C86.2392 25.168 86.3752 24.552 86.5352 23.832C86.5672 23.672 86.6392 23.416 86.7512 23.064C86.8632 22.712 87.0072 22.344 87.1832 21.96C87.3752 21.56 87.5992 21.176 87.8552 20.808C88.1272 20.44 88.4472 20.168 88.8152 19.992C89.0872 20.056 89.4472 20.224 89.8952 20.496C90.3432 20.752 90.7272 21.112 91.0472 21.576C90.6792 21.992 90.3672 22.408 90.1112 22.824C89.8712 23.24 89.6472 23.672 89.4392 24.12C89.2472 24.568 89.0632 25.032 88.8872 25.512C88.7272 25.992 88.5432 26.496 88.3352 27.024C88.1592 27.472 87.9992 27.936 87.8552 28.416C87.7112 28.88 87.6312 29.288 87.6152 29.64C87.6152 29.928 87.6072 30.128 87.5912 30.24C87.5912 30.368 87.5512 30.432 87.4712 30.432C87.4072 30.432 87.2792 30.392 87.0872 30.312C86.8952 30.232 86.6952 30.112 86.4872 29.952C86.2952 29.776 86.1192 29.56 85.9592 29.304C85.7992 29.048 85.7192 28.744 85.7192 28.392ZM90.3032 17.976C90.3032 17.88 90.3272 17.736 90.3752 17.544C90.2952 17.464 90.2232 17.344 90.1592 17.184C90.1112 17.024 90.0872 16.88 90.0872 16.752C90.0872 16.608 90.1032 16.416 90.1352 16.176C90.1832 15.92 90.2392 15.648 90.3032 15.36C90.3672 15.072 90.4472 14.776 90.5432 14.472C90.6392 14.152 90.7352 13.864 90.8312 13.608C91.0232 13.608 91.2552 13.664 91.5272 13.776C91.8152 13.872 92.1032 14.008 92.3912 14.184C92.6792 14.344 92.9432 14.528 93.1832 14.736C93.4232 14.928 93.6072 15.112 93.7352 15.288C93.5592 15.464 93.3272 15.712 93.0392 16.032C92.7512 16.336 92.4712 16.664 92.1992 17.016C91.9272 17.352 91.6792 17.672 91.4552 17.976C91.2312 18.28 91.0872 18.496 91.0232 18.624C90.8312 18.592 90.6632 18.512 90.5192 18.384C90.3752 18.24 90.3032 18.104 90.3032 17.976ZM89.6151 37.944C89.3911 37.88 89.2631 37.64 89.2311 37.224C89.1671 37.016 89.1191 36.768 89.0871 36.48C89.0711 36.192 89.0631 35.864 89.0631 35.496C89.0631 35.16 89.1191 34.696 89.2311 34.104C89.3431 33.528 89.4951 32.872 89.6871 32.136C89.8951 31.4 90.1431 30.608 90.4311 29.76C90.7191 28.896 91.0391 28.024 91.3911 27.144C91.8231 26.04 92.1991 25.088 92.5191 24.288C92.8391 23.472 93.1031 22.768 93.3111 22.176C93.5351 21.584 93.7111 21.096 93.8391 20.712C93.9831 20.328 94.0951 20 94.1751 19.728C94.2391 19.536 94.3351 19.304 94.4631 19.032C94.5911 18.76 94.7351 18.488 94.8951 18.216C95.0711 17.928 95.2471 17.664 95.4231 17.424C95.5991 17.168 95.7591 16.976 95.9031 16.848C96.4631 16.928 96.9911 17.072 97.4871 17.28C97.9831 17.488 98.2871 17.688 98.3991 17.88C98.1751 18.088 97.9191 18.416 97.6311 18.864C97.3431 19.296 97.0631 19.776 96.7911 20.304C96.5191 20.816 96.2711 21.344 96.0471 21.888C95.8231 22.432 95.6551 22.912 95.5431 23.328C95.7031 23.056 95.9111 22.76 96.1671 22.44C96.4231 22.12 96.8151 21.68 97.3431 21.12C97.9351 20.512 98.4871 20.048 98.9991 19.728C99.5271 19.392 99.9831 19.224 100.367 19.224C100.975 19.224 101.471 19.392 101.855 19.728C102.255 20.064 102.455 20.496 102.455 21.024C102.455 22.176 102.263 23.32 101.879 24.456C101.495 25.576 100.943 26.592 100.223 27.504C99.9511 27.856 99.6311 28.192 99.2631 28.512C98.8951 28.832 98.5111 29.12 98.1111 29.376C97.7111 29.616 97.3191 29.808 96.9351 29.952C96.5511 30.096 96.2071 30.168 95.9031 30.168C95.6151 30.168 95.3591 30.112 95.1351 30C94.9271 29.872 94.7831 29.72 94.7031 29.544C95.3271 29.176 95.9351 28.664 96.5271 28.008C97.1191 27.352 97.6631 26.6 98.1591 25.752C98.6711 24.888 99.1111 23.96 99.4791 22.968C99.8631 21.976 100.151 20.968 100.343 19.944C99.7351 20.264 99.1831 20.616 98.6871 21C98.2071 21.368 97.7271 21.856 97.2471 22.464C96.6711 23.168 96.2151 23.736 95.8791 24.168C95.5431 24.6 95.2631 24.968 95.0391 25.272C94.8311 25.576 94.6551 25.864 94.5111 26.136C94.3831 26.392 94.2391 26.712 94.0791 27.096C93.8551 27.608 93.5911 28.288 93.2871 29.136C92.9991 29.968 92.6951 30.904 92.3751 31.944C92.0711 32.984 91.7591 34.088 91.4391 35.256C91.1351 36.44 90.8391 37.616 90.5511 38.784C90.3751 38.752 90.2231 38.624 90.0951 38.4C89.9671 38.256 89.8711 38.152 89.8071 38.088C89.7591 38.024 89.6951 37.976 89.6151 37.944ZM111.912 20.064C111.848 21.056 111.672 21.912 111.384 22.632C111.096 23.336 110.68 23.96 110.136 24.504C109.608 25.032 108.96 25.512 108.192 25.944C107.424 26.376 106.528 26.792 105.504 27.192C105.504 27.288 105.496 27.392 105.48 27.504C105.48 27.6 105.48 27.704 105.48 27.816C105.48 28.024 105.496 28.24 105.528 28.464C105.56 28.688 105.616 28.896 105.696 29.088C105.776 29.28 105.888 29.44 106.032 29.568C106.176 29.68 106.36 29.736 106.584 29.736C107.016 29.736 107.44 29.64 107.856 29.448C108.272 29.256 108.664 29.024 109.032 28.752C109.416 28.464 109.768 28.16 110.088 27.84C110.424 27.504 110.72 27.2 110.976 26.928C111.136 27.072 111.272 27.208 111.384 27.336C110.664 28.296 109.872 29.096 109.008 29.736C108.16 30.36 107.352 30.76 106.584 30.936C105.48 30.808 104.616 30.408 103.992 29.736C103.384 29.048 103.08 28.224 103.08 27.264C103.08 26.608 103.168 25.944 103.344 25.272C103.536 24.584 103.792 23.928 104.112 23.304C104.448 22.664 104.832 22.064 105.264 21.504C105.712 20.944 106.184 20.456 106.68 20.04C107.192 19.624 107.712 19.296 108.24 19.056C108.784 18.816 109.32 18.696 109.848 18.696C110.584 18.792 111.272 19.248 111.912 20.064ZM110.256 20.856C109.824 20.92 109.376 21.096 108.912 21.384C108.448 21.672 108.008 22.056 107.592 22.536C107.192 23.016 106.824 23.576 106.488 24.216C106.152 24.856 105.888 25.544 105.696 26.28C106.976 25.64 108.04 24.856 108.888 23.928C109.736 22.984 110.192 21.96 110.256 20.856ZM121.303 20.448C121.287 20.752 121.231 21.072 121.135 21.408C121.055 21.728 120.951 22.024 120.823 22.296C120.695 22.552 120.559 22.768 120.415 22.944C120.271 23.12 120.135 23.208 120.007 23.208C119.831 23.192 119.727 23.072 119.695 22.848C119.695 22.8 119.711 22.728 119.743 22.632C119.791 22.52 119.839 22.4 119.887 22.272C119.935 22.144 119.975 22.016 120.007 21.888C120.055 21.76 120.079 21.648 120.079 21.552C120.079 21.328 120.023 21.144 119.911 21C119.815 20.84 119.679 20.76 119.503 20.76C118.863 20.76 118.375 21.16 118.039 21.96C117.703 22.76 117.535 23.936 117.535 25.488C117.535 25.648 117.543 25.744 117.559 25.776C117.895 25.76 118.191 25.752 118.447 25.752C118.719 25.736 118.983 25.728 119.239 25.728C119.255 25.76 119.263 25.824 119.263 25.92C119.263 26.064 119.231 26.168 119.167 26.232C118.799 26.312 118.503 26.384 118.279 26.448C118.071 26.496 117.911 26.544 117.799 26.592C117.687 26.64 117.615 26.696 117.583 26.76C117.567 26.808 117.559 26.88 117.559 26.976C117.559 27.104 117.559 27.232 117.559 27.36C117.575 27.488 117.583 27.648 117.583 27.84C117.583 29.184 117.215 30.264 116.479 31.08C115.759 31.896 114.751 32.368 113.455 32.496C113.231 32.48 112.999 32.416 112.759 32.304C112.519 32.192 112.287 32.048 112.063 31.872C111.855 31.696 111.671 31.496 111.511 31.272C111.351 31.064 111.239 30.848 111.175 30.624C111.175 30.016 111.303 29.44 111.559 28.896C111.815 28.336 112.159 27.848 112.591 27.432C113.039 27 113.559 26.656 114.151 26.4C114.759 26.128 115.415 25.968 116.119 25.92C116.119 25.52 116.079 25.128 115.999 24.744C115.919 24.36 115.831 23.992 115.735 23.64C115.655 23.272 115.575 22.92 115.495 22.584C115.415 22.232 115.375 21.888 115.375 21.552C115.375 21.12 115.463 20.696 115.639 20.28C115.815 19.848 116.047 19.456 116.335 19.104C116.623 18.736 116.959 18.424 117.343 18.168C117.727 17.912 118.127 17.736 118.543 17.64C118.719 17.688 118.951 17.832 119.239 18.072C119.543 18.296 119.839 18.552 120.127 18.84C120.415 19.128 120.671 19.424 120.895 19.728C121.119 20.016 121.255 20.256 121.303 20.448ZM113.383 31.392C113.767 31.232 114.127 31 114.463 30.696C114.815 30.392 115.119 30.048 115.375 29.664C115.631 29.28 115.831 28.872 115.975 28.44C116.135 28.008 116.215 27.584 116.215 27.168C115.895 27.216 115.543 27.368 115.159 27.624C114.775 27.864 114.415 28.16 114.079 28.512C113.743 28.848 113.463 29.2 113.239 29.568C113.015 29.936 112.903 30.256 112.903 30.528C112.903 30.88 113.063 31.168 113.383 31.392Z" fill="black"/>
<path d="M17.8559 9.74718C21.9561 9.67663 27.1824 10.503 31.3867 12.8546C32.6338 8.37655 30.876 3.79436 27.09 2.18858C22.9126 0.416513 17.8517 2.93688 15.7782 7.81554C15.4836 8.50978 15.2602 9.2321 15.1113 9.97142C16.0203 9.83648 16.9371 9.76157 17.8559 9.74718V9.74718Z" fill="#F4F4F4"/>
<path d="M4.68617 15.957C6.9865 12.7942 10.592 10.6458 15.1112 9.97061C15.26 9.23129 15.4834 8.50897 15.778 7.81473C16.1982 6.81956 16.7621 5.89145 17.4518 5.06005C15.2674 1.83085 11.5645 0.181393 8.14633 1.24632C3.81441 2.5951 1.58043 7.7971 3.15682 12.8546C3.5001 13.9628 4.01624 15.0099 4.68617 15.957V15.957Z" fill="#F4F4F4"/>
<path d="M1.89406 24.1993C1.47414 32.5977 7.09605 39.0805 16.3461 40.1614C24.6983 41.1381 38.1325 38.8327 38.7699 26.0302C39.4074 13.2276 26.2655 9.60283 17.8578 9.74728C8.54478 9.91021 2.31062 15.8009 1.89406 24.1993Z" fill="#ECC889"/>
<path d="M16.3461 37.138C7.98629 36.1613 2.59197 30.772 1.93941 23.5435C1.92094 23.761 1.90498 23.9793 1.89406 24.1994C1.47414 32.5978 7.09605 39.0806 16.3461 40.1614C24.6983 41.1382 38.1325 38.8328 38.7699 26.0302C38.811 25.2399 38.7958 24.4476 38.7246 23.6594C37.6697 35.8866 24.5539 38.098 16.3461 37.138Z" fill="#F4DEB9"/>
<path d="M11.3254 14.4102C11.3254 14.4102 9.19474 11.2541 10.0724 7.24805" stroke="black" stroke-linecap="round" stroke-linejoin="round"/>
<path d="M9.9358 7.91066C10.5346 7.91066 11.02 7.42523 11.02 6.82643C11.02 6.22762 10.5346 5.74219 9.9358 5.74219C9.33699 5.74219 8.85156 6.22762 8.85156 6.82643C8.85156 7.42523 9.33699 7.91066 9.9358 7.91066Z" fill="black" stroke="black" stroke-linecap="round" stroke-linejoin="round"/>
<path d="M19.0771 13.7736C19.0771 13.7736 19.6533 9.09395 23.0185 6.74658" stroke="black" stroke-linecap="round" stroke-linejoin="round"/>
<path d="M23.2053 7.42482C23.8041 7.42482 24.2896 6.93939 24.2896 6.34059C24.2896 5.74178 23.8041 5.25635 23.2053 5.25635C22.6065 5.25635 22.1211 5.74178 22.1211 6.34059C22.1211 6.93939 22.6065 7.42482 23.2053 7.42482Z" fill="black" stroke="black" stroke-linecap="round" stroke-linejoin="round"/>
<path d="M32.5267 12.7915C32.4636 12.5944 32.3299 12.4275 32.1513 12.3229C30.8411 11.5639 29.4576 10.9392 28.0218 10.4584C27.8692 10.4065 27.705 10.3995 27.5485 10.4384C27.3921 10.4772 27.2502 10.5603 27.1397 10.6776C27.0292 10.7949 26.9548 10.9415 26.9254 11.1C26.8959 11.2584 26.9127 11.422 26.9737 11.5712C27.596 13.0947 28.6769 16.3541 28.928 21.0698C29.2337 26.795 28.2561 32.9116 26.0196 39.2482C25.9749 39.3749 25.9612 39.5105 25.9797 39.6435C25.9982 39.7766 26.0483 39.9033 26.1259 40.0129C26.2035 40.1226 26.3062 40.2121 26.4256 40.2738C26.5449 40.3355 26.6772 40.3678 26.8116 40.3678C26.8809 40.3677 26.95 40.3592 27.0173 40.3426C28.4193 39.9938 29.7834 39.5075 31.0897 38.8905C31.1931 38.8407 31.2852 38.7704 31.3603 38.6837C31.4354 38.5971 31.4919 38.4959 31.5265 38.3866C35.5409 25.9308 33.8763 17.0033 32.5267 12.7915Z" fill="#3D3D3D"/>
<path d="M26.9208 36.4771C26.647 37.3959 26.3466 38.3197 26.0196 39.2486C25.9749 39.3753 25.9612 39.5108 25.9797 39.6439C25.9982 39.777 26.0483 39.9036 26.1259 40.0133C26.2035 40.123 26.3062 40.2124 26.4256 40.2742C26.5449 40.3359 26.6772 40.3681 26.8116 40.3681C26.8809 40.368 26.95 40.3596 27.0173 40.3429C28.4193 39.9942 29.7834 39.5078 31.0897 38.8908C31.1931 38.8411 31.2852 38.7708 31.3603 38.6841C31.4354 38.5974 31.4919 38.4963 31.5265 38.3869C32.0203 36.8559 32.4276 35.3778 32.7602 33.9551C31.0083 35.1241 29.0019 35.9405 26.9208 36.4771Z" fill="#2D2D2D"/>
<path d="M8.74623 37.6318L7.86523 39.0965" stroke="black" stroke-linecap="round" stroke-linejoin="round"/>
<path d="M18.0071 40.3081L17.9189 42.076" stroke="black" stroke-linecap="round" stroke-linejoin="round"/>
<path d="M26.8125 39.5283L27.4617 41.1375" stroke="black" stroke-linecap="round" stroke-linejoin="round"/>
<path d="M34.6709 35.4683L35.6602 36.6172" stroke="black" stroke-linecap="round" stroke-linejoin="round"/>
<path d="M1.89406 24.1993C1.47414 32.5977 7.09605 39.0805 16.3461 40.1614C24.6983 41.1381 38.1325 38.8327 38.7699 26.0302C39.4074 13.2276 26.2655 9.60283 17.8578 9.74728C8.54478 9.91021 2.31062 15.8009 1.89406 24.1993Z" stroke="black" stroke-linecap="round" stroke-linejoin="round"/>
<path d="M17.8559 9.74718C21.9561 9.67663 27.1824 10.503 31.3867 12.8546C32.6338 8.37655 30.876 3.79436 27.09 2.18858C22.9126 0.416513 17.8517 2.93688 15.7782 7.81554C15.4836 8.50978 15.2602 9.2321 15.1113 9.97142C16.0203 9.83648 16.9371 9.76157 17.8559 9.74718V9.74718Z" stroke="black" stroke-linecap="round" stroke-linejoin="round"/>
<path d="M4.68617 15.957C6.9865 12.7942 10.592 10.6458 15.1112 9.97061C15.26 9.23129 15.4834 8.50897 15.778 7.81473C16.1982 6.81956 16.7621 5.89145 17.4518 5.06005C15.2674 1.83085 11.5645 0.181393 8.14633 1.24632C3.81441 2.5951 1.58043 7.7971 3.15682 12.8546C3.5001 13.9628 4.01624 15.0099 4.68617 15.957V15.957Z" stroke="black" stroke-linecap="round" stroke-linejoin="round"/>
<path d="M38.7749 24.4395C38.7968 24.9534 38.7959 25.4834 38.7682 26.031C38.7405 26.5785 38.6884 27.106 38.6162 27.6157L41.1282 26.1485L38.7749 24.4395Z" fill="black" stroke="black" stroke-linecap="round" stroke-linejoin="round"/>
<path d="M8.46529 29.6908C9.14295 29.6908 9.6923 29.1415 9.6923 28.4638C9.6923 27.7862 9.14295 27.2368 8.46529 27.2368C7.78763 27.2368 7.23828 27.7862 7.23828 28.4638C7.23828 29.1415 7.78763 29.6908 8.46529 29.6908Z" fill="#FFC543"/>
<path d="M23.0463 29.6908C23.724 29.6908 24.2734 29.1415 24.2734 28.4638C24.2734 27.7862 23.724 27.2368 23.0463 27.2368C22.3687 27.2368 21.8193 27.7862 21.8193 28.4638C21.8193 29.1415 22.3687 29.6908 23.0463 29.6908Z" fill="#FFC543"/>
<path d="M20.0244 23.9874C20.0336 23.6025 20.193 23.2364 20.4685 22.9674C20.744 22.6984 21.1137 22.5479 21.4988 22.5479C21.8838 22.5479 22.2536 22.6984 22.5291 22.9674C22.8046 23.2364 22.9639 23.6025 22.9731 23.9874" stroke="black" stroke-linecap="round" stroke-linejoin="round"/>
<path d="M8.53809 23.9874C8.54727 23.6025 8.70664 23.2364 8.98213 22.9674C9.25762 22.6984 9.62739 22.5479 10.0124 22.5479C10.3975 22.5479 10.7672 22.6984 11.0427 22.9674C11.3182 23.2364 11.4776 23.6025 11.4868 23.9874" stroke="black" stroke-linecap="round" stroke-linejoin="round"/>
<path d="M15.7554 30.3487C16.7553 30.3487 17.7142 29.9515 18.4212 29.2444C19.1283 28.5374 19.5255 27.5785 19.5255 26.5786H11.9854C11.9854 27.5785 12.3826 28.5374 13.0896 29.2444C13.7966 29.9515 14.7555 30.3487 15.7554 30.3487Z" fill="#C91741"/>
<path d="M15.7554 29.5087C14.9777 29.5069 14.2323 29.1971 13.6826 28.647C14.3084 28.27 15.0252 28.0708 15.7558 28.0708C16.4864 28.0708 17.2031 28.27 17.8289 28.647C17.279 29.1973 16.5333 29.5072 15.7554 29.5087V29.5087Z" fill="#EA6077"/>
<path d="M15.7554 30.3487C16.7553 30.3487 17.7142 29.9515 18.4212 29.2444C19.1283 28.5374 19.5255 27.5785 19.5255 26.5786H11.9854C11.9854 27.5785 12.3826 28.5374 13.0896 29.2444C13.7966 29.9515 14.7555 30.3487 15.7554 30.3487Z" stroke="black" stroke-linecap="round" stroke-linejoin="round"/>
</svg>
