<svg width="168" height="195" viewBox="0 0 168 195" fill="none" xmlns="http://www.w3.org/2000/svg">
<path d="M28.2108 112.441C36.7844 115.65 47.8316 118.859 54.2538 125.277C68.3504 139.686 68.9602 162.31 78.754 178.837C81.1944 183.137 83.3459 188.015 86.1075 191.994C90.0892 197.834 92.8499 194.144 96.5106 189.555C102.644 181.597 104.474 171.809 106.144 162.021C107.814 152.233 109.194 143.023 111.025 133.845C113.176 123.448 120.82 120.078 130.036 116.709C137.967 113.499 145.93 110.9 153.893 108.14C157.265 106.921 166.16 106.311 167.702 102.653C169.532 98.0315 162.467 95.9137 159.417 94.3733C150.554 90.394 140.728 88.5648 132.154 84.746C122.36 80.157 118.7 74.0596 115.007 64.5606C107.975 45.5949 108.585 25.3775 101.553 6.79684C99.6905 2.52874 97.2499 -2.06007 93.2681 0.988573C89.2864 4.03722 86.5249 13.5358 83.6349 17.5151C75.9925 29.1642 73.8403 43.5413 68.3493 56.3777C65.5878 62.5071 63.1152 72.9045 57.9133 77.2047C52.1012 82.1146 40.7668 83.013 33.7345 84.2324C22.3994 86.3825 1.23917 84.6817 0.0510695 94.662C-1.13703 104.642 18.706 109.071 28.2108 112.441Z" fill="#ECC889" fill-opacity="0.6"/>
</svg>
